<svg width="22" height="22" viewBox="0 0 22 22" fill="none" xmlns="http://www.w3.org/2000/svg">
<path d="M11 2.57893C6.35161 2.57893 2.57898 6.35157 2.57898 11C2.57898 15.6484 6.35161 19.421 11 19.421C15.6485 19.421 19.4211 15.6484 19.4211 11C19.4211 6.35157 15.6485 2.57893 11 2.57893ZM4.26319 11C4.26319 7.27788 7.27793 4.26314 11 4.26314C12.5579 4.26314 13.9895 4.79367 15.1263 5.6863L5.68635 15.1263C4.79372 13.9895 4.26319 12.5579 4.26319 11ZM11 17.7368C9.44214 17.7368 8.01056 17.2063 6.87372 16.3137L16.3137 6.87367C17.2063 8.01051 17.7369 9.44209 17.7369 11C17.7369 14.7221 14.7221 17.7368 11 17.7368Z" fill="white"/>
</svg>
